<?xml version="1.0" encoding="UTF-8"?>
<svg id="Layer_1" xmlns="http://www.w3.org/2000/svg" version="1.1" viewBox="0 0 11.9 8.6">
  <!-- Generator: Adobe Illustrator 29.2.1, SVG Export Plug-In . SVG Version: 2.1.0 Build 116)  -->
  <defs>
    <style>
      .st0 {
        fill: #fff;
        fill-rule: evenodd;
      }
    </style>
  </defs>
  <path class="st0" d="M4,0C3.5,0,2.9.3,2.5.7L.5,3.1c-.6.8-.6,1.8,0,2.6l1.9,2.2c.4.4.9.7,1.5.7h6.1c1.1,0,2-.9,2-2V2c0-1.1-.9-2-2-2H3.9h.1ZM5.5,2.3c.3-.3.8-.3,1.1,0l.8.8.8-.8c.3-.3.8-.3,1.1,0s.3.8,0,1.1l-.8.8.8.8c.3.3.3.8,0,1.1s-.8.3-1.1,0l-.8-.8-.8.8c-.3.3-.8.3-1.1,0-.3-.3-.3-.8,0-1.1l.8-.8-.8-.8c-.3-.3-.3-.8,0-1.1Z"/>
</svg>