<?xml version="1.0" encoding="UTF-8"?>
<svg id="Layer_1" xmlns="http://www.w3.org/2000/svg" version="1.1" viewBox="0 0 72 72">
  <!-- Generator: Adobe Illustrator 29.2.1, SVG Export Plug-In . SVG Version: 2.1.0 Build 116)  -->
  <defs>
    <style>
      .st0 {
        fill: #fff;
      }
    </style>
  </defs>
  <path class="st0" d="M67.5,19.5l-15-15,4.5-4.5,15,15-4.5,4.5ZM65.4,21.6c1.6,1.6,1.6,4.1,0,5.6s-4.1,1.6-5.6,0l-5.5,5.5c4.4,10.3,2.4,22.6-6,31-11,11-28.9,11-40,0-11-11-11-28.9,0-40,8.4-8.4,20.7-10.4,31-6l5.5-5.5c-1.6-1.6-1.6-4.1,0-5.6,1.6-1.6,4.1-1.6,5.6,0l15,15ZM50.5,43.7H6c0,12.3,10,22.3,22.3,22.3s22.3-10,22.3-22.3h0Z"/>
</svg>