<?xml version="1.0" encoding="UTF-8"?>
<svg id="Layer_1" xmlns="http://www.w3.org/2000/svg" version="1.1" viewBox="0 0 72 72">
  <!-- Generator: Adobe Illustrator 29.2.1, SVG Export Plug-In . SVG Version: 2.1.0 Build 116)  -->
  <defs>
    <style>
      .st0 {
        fill: #fff;
      }
    </style>
  </defs>
  <path class="st0" d="M48.4,55.7l-6.5,6.5-2.3-2.3c1.9-1.9,2.6-4.4,2.2-6.8,0,0-33.9-33.9-33.9-33.9C2.9,14.2,0,7.2,0,0c7.2,0,14.2,2.9,19.3,8l33.9,33.9h0c2.4.3,4.9-.4,6.8-2.2l2.3,2.3-13.9,13.9h0ZM70.3,60.1c-1.4,1.4-3.7,1.4-5.1,0l-8.5-8.5-5.1,5.1,8.5,8.5c1.4,1.4,1.4,3.7,0,5.1l1.7,1.7.9-.9h3.4l5.1-5.1v-3.4l.9-.9-1.7-1.7h0Z"/>
</svg>